# Blender 4.1.1
# www.blender.org
mtllib grass.mtl
o Cube
v 0.041784 10.549023 -11.433623
v 1.000000 -1.000000 -1.000000
v 0.060576 10.900795 -11.348620
v 1.000000 -1.000000 1.000000
v -0.318541 10.542405 -11.406963
v -1.000000 -1.000000 -1.000000
v -0.298908 10.895926 -11.310767
v -1.000000 -1.000000 1.000000
v 0.519745 9.243409 -8.795510
v 0.683707 7.781654 -6.655234
v 0.670596 5.221129 -4.340409
v 0.858016 2.419294 -2.661090
v -0.888355 3.422162 -1.231381
v -0.586893 5.989049 -3.212552
v -0.401188 8.569795 -5.887317
v -0.236708 10.002471 -8.437981
v 0.582452 10.009559 -8.498631
v 0.757948 8.575166 -5.897268
v 0.772388 5.977253 -3.208096
v 0.858016 3.422162 -1.231381
v -0.299814 9.238529 -8.739419
v -0.475429 7.781157 -6.654198
v -0.688684 5.220245 -4.333555
v -0.888355 2.419294 -2.661090
vn -0.0904 0.2524 -0.9634
vn 0.0151 0.9550 0.2963
vn -0.9974 0.0602 0.0384
vn -0.0000 -1.0000 -0.0000
vn 0.9831 -0.0092 -0.1828
vn -0.0221 -0.8979 -0.4396
vn -0.0000 -0.4370 -0.8995
vn -0.0017 -0.5134 -0.8582
vn -0.0020 -0.6710 -0.7414
vn -0.0142 -0.8227 -0.5684
vn 0.9995 0.0316 -0.0092
vn 0.9986 0.0162 -0.0508
vn 0.9974 -0.0500 -0.0519
vn 0.9957 -0.0278 -0.0882
vn -0.9997 0.0249 -0.0073
vn -0.9965 0.0815 -0.0169
vn -0.9955 0.0929 0.0162
vn -0.9952 0.0968 -0.0127
vn -0.0000 0.4505 0.8928
vn 0.0012 0.6114 0.7913
vn 0.0034 0.7194 0.6946
vn 0.0118 0.8738 0.4862
vt 0.625000 0.500000
vt 0.875000 0.500000
vt 0.875000 0.750000
vt 0.625000 0.750000
vt 0.575000 0.750000
vt 0.625000 1.000000
vt 0.575000 1.000000
vt 0.575000 0.000000
vt 0.625000 0.000000
vt 0.625000 0.250000
vt 0.575000 0.250000
vt 0.125000 0.500000
vt 0.375000 0.500000
vt 0.375000 0.750000
vt 0.125000 0.750000
vt 0.575000 0.500000
vt 0.375000 0.250000
vt 0.425000 0.250000
vt 0.425000 0.500000
vt 0.475000 0.250000
vt 0.475000 0.500000
vt 0.525000 0.250000
vt 0.525000 0.500000
vt 0.425000 0.750000
vt 0.475000 0.750000
vt 0.525000 0.750000
vt 0.375000 0.000000
vt 0.425000 0.000000
vt 0.475000 0.000000
vt 0.525000 0.000000
vt 0.425000 1.000000
vt 0.375000 1.000000
vt 0.475000 1.000000
vt 0.525000 1.000000
s 0
usemtl Material
f 1/1/1 5/2/1 7/3/1 3/4/1
f 17/5/2 3/4/2 7/6/2 16/7/2
f 16/8/3 7/9/3 5/10/3 21/11/3
f 6/12/4 2/13/4 4/14/4 8/15/4
f 9/16/5 1/1/5 3/4/5 17/5/5
f 21/11/6 5/10/6 1/1/6 9/16/6
f 6/17/7 24/18/7 12/19/7 2/13/7
f 24/18/8 23/20/8 11/21/8 12/19/8
f 23/20/9 22/22/9 10/23/9 11/21/9
f 22/22/10 21/11/10 9/16/10 10/23/10
f 2/13/11 12/19/11 20/24/11 4/14/11
f 12/19/12 11/21/12 19/25/12 20/24/12
f 11/21/13 10/23/13 18/26/13 19/25/13
f 10/23/14 9/16/14 17/5/14 18/26/14
f 8/27/15 13/28/15 24/18/15 6/17/15
f 13/28/16 14/29/16 23/20/16 24/18/16
f 14/29/17 15/30/17 22/22/17 23/20/17
f 15/30/18 16/8/18 21/11/18 22/22/18
f 4/14/19 20/24/19 13/31/19 8/32/19
f 20/24/20 19/25/20 14/33/20 13/31/20
f 19/25/21 18/26/21 15/34/21 14/33/21
f 18/26/22 17/5/22 16/7/22 15/34/22
o Cube.001
v 0.858314 12.810457 -1.563084
v 1.298861 -1.000000 0.131650
v 0.776658 12.879455 -1.378781
v 0.402438 -1.000000 2.293693
v 0.638033 12.738360 -1.619154
v -0.863182 -1.000000 -0.764774
v 0.573325 12.879455 -1.463086
v -1.759606 -1.000000 1.397270
v 0.704875 10.820943 -0.493577
v 0.658346 8.883135 -0.029816
v 0.897731 4.112363 0.327032
v -1.392465 4.112363 1.274735
v -0.681783 9.164897 0.494886
v -0.263167 11.010180 -0.119753
v 0.417292 11.010180 0.162377
v 0.276122 9.164897 0.892051
v 0.226485 4.112363 1.945982
v 0.003530 10.769880 -0.762988
v -0.299560 8.883135 -0.426981
v -0.721218 4.112363 -0.344214
vn 0.0257 0.8556 -0.5170
vn -0.2940 0.6410 0.7090
vn -0.9005 0.1030 -0.4225
vn -0.0000 -1.0000 -0.0000
vn 0.9219 0.1255 0.3666
vn 0.3494 -0.4653 -0.8133
vn 0.3822 0.0652 -0.9218
vn 0.3825 -0.0498 -0.9226
vn 0.3693 -0.2224 -0.9023
vn 0.9222 0.0577 0.3824
vn 0.9242 0.0717 0.3752
vn 0.9256 0.0713 0.3717
vn -0.9222 0.0571 -0.3824
vn -0.9185 0.0717 -0.3888
vn -0.9123 0.0738 -0.4029
vn -0.3825 0.0496 0.9226
vn -0.3758 0.1928 0.9064
vn -0.3563 0.3670 0.8593
vt 0.625000 0.500000
vt 0.875000 0.500000
vt 0.875000 0.750000
vt 0.625000 0.750000
vt 0.562500 0.750000
vt 0.625000 1.000000
vt 0.562500 1.000000
vt 0.562500 0.000000
vt 0.625000 0.000000
vt 0.625000 0.250000
vt 0.562500 0.250000
vt 0.125000 0.500000
vt 0.375000 0.500000
vt 0.375000 0.750000
vt 0.125000 0.750000
vt 0.562500 0.500000
vt 0.375000 0.250000
vt 0.437500 0.250000
vt 0.437500 0.500000
vt 0.500000 0.250000
vt 0.500000 0.500000
vt 0.437500 0.750000
vt 0.500000 0.750000
vt 0.375000 0.000000
vt 0.437500 0.000000
vt 0.500000 0.000000
vt 0.437500 1.000000
vt 0.375000 1.000000
vt 0.500000 1.000000
s 0
usemtl Material
f 25/35/23 29/36/23 31/37/23 27/38/23
f 39/39/24 27/38/24 31/40/24 38/41/24
f 38/42/25 31/43/25 29/44/25 42/45/25
f 30/46/26 26/47/26 28/48/26 32/49/26
f 33/50/27 25/35/27 27/38/27 39/39/27
f 42/45/28 29/44/28 25/35/28 33/50/28
f 30/51/29 44/52/29 35/53/29 26/47/29
f 44/52/30 43/54/30 34/55/30 35/53/30
f 43/54/31 42/45/31 33/50/31 34/55/31
f 26/47/32 35/53/32 41/56/32 28/48/32
f 35/53/33 34/55/33 40/57/33 41/56/33
f 34/55/34 33/50/34 39/39/34 40/57/34
f 32/58/35 36/59/35 44/52/35 30/51/35
f 36/59/36 37/60/36 43/54/36 44/52/36
f 37/60/37 38/42/37 42/45/37 43/54/37
f 28/48/38 41/56/38 36/61/38 32/62/38
f 41/56/39 40/57/39 37/63/39 36/61/39
f 40/57/40 39/39/40 38/41/40 37/63/40
o Cube.002
v -3.314480 9.105717 -1.631222
v -2.033241 -1.010602 -1.691787
v -3.194659 9.156258 -1.544928
v -0.618369 -1.010602 -0.723548
v -3.387851 9.052904 -1.481757
v -3.001480 -1.010602 -0.276915
v -3.285718 9.156258 -1.411864
v -1.586608 -1.010602 0.691324
v -2.570903 7.648374 -1.360149
v -2.245458 6.228907 -1.256945
v -1.953593 2.734262 -1.374806
v -1.619152 2.734262 0.409680
v -2.071159 6.435301 -0.217234
v -2.448721 7.786993 -0.609895
v -2.143988 7.786993 -1.055197
v -1.642175 6.435301 -0.844101
v -0.894130 2.734262 -0.649783
v -2.869663 7.610970 -0.897958
v -2.674442 6.228907 -0.630078
v -2.678616 2.734262 -0.315342
vn -0.5007 0.8556 -0.1315
vn 0.6334 0.6410 0.4334
vn -0.5986 0.1030 0.7944
vn -0.0000 -1.0000 -0.0000
vn 0.5483 0.1255 -0.8268
vn -0.7241 -0.4653 -0.5092
vn -0.8235 0.0652 -0.5635
vn -0.8242 -0.0498 -0.5640
vn -0.8071 -0.2224 -0.5470
vn 0.5638 0.0577 -0.8239
vn 0.5572 0.0717 -0.8273
vn 0.5540 0.0713 -0.8294
vn -0.5638 0.0571 0.8239
vn -0.5693 0.0717 0.8190
vn -0.5818 0.0738 0.8100
vn 0.8242 0.0496 0.5641
vn 0.8098 0.1928 0.5542
vn 0.7677 0.3670 0.5253
vt 0.625000 0.500000
vt 0.875000 0.500000
vt 0.875000 0.750000
vt 0.625000 0.750000
vt 0.562500 0.750000
vt 0.625000 1.000000
vt 0.562500 1.000000
vt 0.562500 0.000000
vt 0.625000 0.000000
vt 0.625000 0.250000
vt 0.562500 0.250000
vt 0.125000 0.500000
vt 0.375000 0.500000
vt 0.375000 0.750000
vt 0.125000 0.750000
vt 0.562500 0.500000
vt 0.375000 0.250000
vt 0.437500 0.250000
vt 0.437500 0.500000
vt 0.500000 0.250000
vt 0.500000 0.500000
vt 0.437500 0.750000
vt 0.500000 0.750000
vt 0.375000 0.000000
vt 0.437500 0.000000
vt 0.500000 0.000000
vt 0.437500 1.000000
vt 0.375000 1.000000
vt 0.500000 1.000000
s 0
usemtl Material
f 45/64/41 49/65/41 51/66/41 47/67/41
f 59/68/42 47/67/42 51/69/42 58/70/42
f 58/71/43 51/72/43 49/73/43 62/74/43
f 50/75/44 46/76/44 48/77/44 52/78/44
f 53/79/45 45/64/45 47/67/45 59/68/45
f 62/74/46 49/73/46 45/64/46 53/79/46
f 50/80/47 64/81/47 55/82/47 46/76/47
f 64/81/48 63/83/48 54/84/48 55/82/48
f 63/83/49 62/74/49 53/79/49 54/84/49
f 46/76/50 55/82/50 61/85/50 48/77/50
f 55/82/51 54/84/51 60/86/51 61/85/51
f 54/84/52 53/79/52 59/68/52 60/86/52
f 52/87/53 56/88/53 64/81/53 50/80/53
f 56/88/54 57/89/54 63/83/54 64/81/54
f 57/89/55 58/71/55 62/74/55 63/83/55
f 48/77/56 61/85/56 56/90/56 52/91/56
f 61/85/57 60/86/57 57/92/57 56/90/57
f 60/86/58 59/68/58 58/70/58 57/92/58
o Cube.003
v 2.102401 7.520885 9.097960
v -1.772457 -0.935799 2.476292
v 2.063547 7.778468 9.047423
v -2.393413 -0.935799 1.149970
v 2.333076 7.516039 8.968408
v -0.446135 -0.935799 1.855337
v 2.290190 7.774902 8.910709
v -1.067091 -0.935799 0.529015
v 0.966360 6.564859 7.496862
v 0.193119 5.494501 6.128421
v -0.516888 3.619576 4.589249
v -1.162568 1.567953 3.533779
v -0.448335 2.302295 2.043443
v -0.033144 4.181880 3.450876
v 0.674159 6.071610 5.282332
v 1.357006 7.120677 7.024900
v 0.832601 7.125867 7.319452
v -0.091446 6.075543 5.648817
v -0.935950 4.173242 3.869946
v -1.606460 2.302295 2.585652
v 1.492445 6.561286 7.205210
v 0.961492 5.494137 5.767848
v 0.382406 3.618928 4.162677
v -0.004443 1.567953 2.991570
vn 0.4903 0.2524 0.8342
vn -0.1393 0.9550 -0.2619
vn 0.8870 0.0602 -0.4577
vn -0.0000 -1.0000 -0.0000
vn -0.8129 -0.0092 0.5824
vn 0.2064 -0.8979 0.3887
vn 0.3814 -0.4370 0.8146
vn 0.3655 -0.5134 0.7765
vn 0.3162 -0.6710 0.6707
vn 0.2538 -0.8227 0.5087
vn -0.9012 0.0316 0.4321
vn -0.8828 0.0162 0.4694
vn -0.8813 -0.0500 0.4699
vn -0.8644 -0.0278 0.5021
vn 0.9084 0.0249 -0.4173
vn 0.9097 0.0815 -0.4073
vn 0.8948 0.0929 -0.4367
vn 0.9067 0.0968 -0.4105
vn -0.3785 0.4505 -0.8086
vn -0.3366 0.6114 -0.7162
vn -0.2976 0.7194 -0.6277
vn -0.2169 0.8738 -0.4353
vt 0.625000 0.500000
vt 0.875000 0.500000
vt 0.875000 0.750000
vt 0.625000 0.750000
vt 0.575000 0.750000
vt 0.625000 1.000000
vt 0.575000 1.000000
vt 0.575000 0.000000
vt 0.625000 0.000000
vt 0.625000 0.250000
vt 0.575000 0.250000
vt 0.125000 0.500000
vt 0.375000 0.500000
vt 0.375000 0.750000
vt 0.125000 0.750000
vt 0.575000 0.500000
vt 0.375000 0.250000
vt 0.425000 0.250000
vt 0.425000 0.500000
vt 0.475000 0.250000
vt 0.475000 0.500000
vt 0.525000 0.250000
vt 0.525000 0.500000
vt 0.425000 0.750000
vt 0.475000 0.750000
vt 0.525000 0.750000
vt 0.375000 0.000000
vt 0.425000 0.000000
vt 0.475000 0.000000
vt 0.525000 0.000000
vt 0.425000 1.000000
vt 0.375000 1.000000
vt 0.475000 1.000000
vt 0.525000 1.000000
s 0
usemtl Material
f 65/93/59 69/94/59 71/95/59 67/96/59
f 81/97/60 67/96/60 71/98/60 80/99/60
f 80/100/61 71/101/61 69/102/61 85/103/61
f 70/104/62 66/105/62 68/106/62 72/107/62
f 73/108/63 65/93/63 67/96/63 81/97/63
f 85/103/64 69/102/64 65/93/64 73/108/64
f 70/109/65 88/110/65 76/111/65 66/105/65
f 88/110/66 87/112/66 75/113/66 76/111/66
f 87/112/67 86/114/67 74/115/67 75/113/67
f 86/114/68 85/103/68 73/108/68 74/115/68
f 66/105/69 76/111/69 84/116/69 68/106/69
f 76/111/70 75/113/70 83/117/70 84/116/70
f 75/113/71 74/115/71 82/118/71 83/117/71
f 74/115/72 73/108/72 81/97/72 82/118/72
f 72/119/73 77/120/73 88/110/73 70/109/73
f 77/120/74 78/121/74 87/112/74 88/110/74
f 78/121/75 79/122/75 86/114/75 87/112/75
f 79/122/76 80/100/76 85/103/76 86/114/76
f 68/106/77 84/116/77 77/123/77 72/124/77
f 84/116/78 83/117/78 78/125/78 77/123/78
f 83/117/79 82/118/79 79/126/79 78/125/79
f 82/118/80 81/97/80 80/99/80 79/126/80
o Cube.004
v 2.571033 5.983529 1.275020
v 1.724627 -1.022506 1.544636
v 2.475434 6.018531 1.238708
v 0.604855 -1.022506 1.149808
v 2.593397 5.946955 1.161898
v 2.119455 -1.022506 0.424864
v 2.512566 6.018531 1.133397
v 0.999683 -1.022506 0.030036
v 2.025059 4.974250 1.226610
v 1.788862 3.991201 1.215752
v 1.614659 1.570992 1.346796
v 1.071817 1.570992 0.212655
v 1.486336 4.134139 0.551281
v 1.809161 5.070250 0.746487
v 1.684897 5.070250 1.098912
v 1.311405 4.134139 1.047402
v 0.776167 1.570992 1.051147
v 2.142307 4.948346 0.863953
v 1.963793 3.991201 0.719630
v 1.910308 1.570992 0.508305
vn 0.5177 0.8556 -0.0023
vn -0.7238 0.6410 -0.2552
vn 0.3732 0.1030 -0.9220
vn -0.0000 -1.0000 -0.0000
vn -0.3162 0.1255 0.9404
vn 0.8310 -0.4653 0.3049
vn 0.9411 0.0652 0.3318
vn 0.9419 -0.0498 0.3321
vn 0.9209 -0.2224 0.3200
vn -0.3320 0.0577 0.9415
vn -0.3247 0.0717 0.9431
vn -0.3211 0.0713 0.9444
vn 0.3320 0.0571 -0.9416
vn 0.3386 0.0717 -0.9382
vn 0.3530 0.0738 -0.9327
vn -0.9419 0.0496 -0.3321
vn -0.9254 0.1928 -0.3263
vn -0.8773 0.3670 -0.3093
vt 0.625000 0.500000
vt 0.875000 0.500000
vt 0.875000 0.750000
vt 0.625000 0.750000
vt 0.562500 0.750000
vt 0.625000 1.000000
vt 0.562500 1.000000
vt 0.562500 0.000000
vt 0.625000 0.000000
vt 0.625000 0.250000
vt 0.562500 0.250000
vt 0.125000 0.500000
vt 0.375000 0.500000
vt 0.375000 0.750000
vt 0.125000 0.750000
vt 0.562500 0.500000
vt 0.375000 0.250000
vt 0.437500 0.250000
vt 0.437500 0.500000
vt 0.500000 0.250000
vt 0.500000 0.500000
vt 0.437500 0.750000
vt 0.500000 0.750000
vt 0.375000 0.000000
vt 0.437500 0.000000
vt 0.500000 0.000000
vt 0.437500 1.000000
vt 0.375000 1.000000
vt 0.500000 1.000000
s 0
usemtl Material
f 89/127/81 93/128/81 95/129/81 91/130/81
f 103/131/82 91/130/82 95/132/82 102/133/82
f 102/134/83 95/135/83 93/136/83 106/137/83
f 94/138/84 90/139/84 92/140/84 96/141/84
f 97/142/85 89/127/85 91/130/85 103/131/85
f 106/137/86 93/136/86 89/127/86 97/142/86
f 94/143/87 108/144/87 99/145/87 90/139/87
f 108/144/88 107/146/88 98/147/88 99/145/88
f 107/146/89 106/137/89 97/142/89 98/147/89
f 90/139/90 99/145/90 105/148/90 92/140/90
f 99/145/91 98/147/91 104/149/91 105/148/91
f 98/147/92 97/142/92 103/131/92 104/149/92
f 96/150/93 100/151/93 108/144/93 94/143/93
f 100/151/94 101/152/94 107/146/94 108/144/94
f 101/152/95 102/134/95 106/137/95 107/146/95
f 92/140/96 105/148/96 100/153/96 96/154/96
f 105/148/97 104/149/97 101/155/97 100/153/97
f 104/149/98 103/131/98 102/133/98 101/155/98
