# Blender 4.1.1
# www.blender.org
mtllib Berry_1.mtl
o Berry_1
v -0.012774 -0.152961 0.000033
v 0.179641 -0.050310 0.096181
v -0.114742 -0.078679 0.225173
v -0.222001 -0.075018 0.007188
v -0.050590 -0.091417 -0.292494
v 0.236260 -0.036198 -0.102240
v 0.107623 0.107157 0.253949
v -0.172098 0.087985 0.113678
v -0.242605 0.100809 -0.120891
v 0.042722 0.128989 -0.136948
v 0.201697 0.104256 0.036456
v -0.065356 0.166356 0.031490
vn 0.2629 -0.8745 0.4076
vn 0.4449 -0.8933 0.0634
vn -0.3405 -0.9279 0.1519
vn -0.3497 -0.9249 -0.1494
vn 0.3318 -0.9136 -0.2351
vn 0.9617 -0.0321 0.2721
vn 0.3764 -0.5642 0.7349
vn -0.8973 -0.0136 0.4413
vn -0.8008 -0.4111 -0.4355
vn 0.4621 0.3723 -0.8048
vn 0.9177 0.0223 0.3966
vn -0.4335 0.3932 0.8108
vn -0.9513 0.1008 0.2914
vn -0.1040 0.6025 -0.7913
vn 0.6183 0.6240 -0.4778
vn 0.2242 0.9709 0.0840
vn -0.2815 0.8501 0.4451
vn -0.4809 0.8556 0.1913
vn -0.1100 0.9531 -0.2820
vn 0.2272 0.9714 -0.0697
s 0
usemtl Material.004
f 1//1 2//1 3//1
f 2//2 1//2 6//2
f 1//3 3//3 4//3
f 1//4 4//4 5//4
f 1//5 5//5 6//5
f 2//6 6//6 11//6
f 3//7 2//7 7//7
f 4//8 3//8 8//8
f 5//9 4//9 9//9
f 6//10 5//10 10//10
f 2//11 11//11 7//11
f 3//12 7//12 8//12
f 4//13 8//13 9//13
f 5//14 9//14 10//14
f 6//15 10//15 11//15
f 7//16 11//16 12//16
f 8//17 7//17 12//17
f 9//18 8//18 12//18
f 10//19 9//19 12//19
f 11//20 10//20 12//20
