# Blender 4.1.1
# www.blender.org
mtllib Bush_3.mtl
o Bush_3
v -0.015328 -0.401734 -0.016714
v 0.437835 -0.148253 0.172802
v -0.324411 -0.278262 0.583895
v -0.812387 -0.259159 -0.055729
v -0.150838 -0.283368 -0.627608
v 0.627932 -0.197743 -0.374674
v 0.206032 0.275725 0.539450
v -0.873823 0.411127 0.502628
v -0.650859 0.423031 -0.354799
v 0.206731 0.233234 -0.827261
v 0.896535 0.253024 -0.310305
v -0.071499 0.640579 -0.024265
vn 0.3395 -0.8715 0.3539
vn 0.4043 -0.8876 0.2206
vn -0.1802 -0.9777 0.1083
vn -0.1668 -0.9742 -0.1518
vn 0.1784 -0.9578 -0.2252
vn 0.7924 -0.5181 0.3220
vn 0.4867 -0.4038 0.7747
vn -0.6978 -0.4951 0.5176
vn -0.6478 -0.1720 -0.7421
vn 0.3147 -0.5238 -0.7916
vn 0.7686 -0.1227 0.6278
vn -0.0213 0.1002 0.9947
vn -0.9614 0.1188 -0.2483
vn -0.4832 -0.0039 -0.8755
vn 0.5867 -0.2391 -0.7737
vn 0.4332 0.8388 0.3296
vn 0.0899 0.8557 0.5096
vn -0.3159 0.9463 -0.0690
vn -0.0633 0.8810 -0.4689
vn 0.2499 0.8957 -0.3678
s 0
usemtl Material.001
f 1//1 2//1 3//1
f 2//2 1//2 6//2
f 1//3 3//3 4//3
f 1//4 4//4 5//4
f 1//5 5//5 6//5
f 2//6 6//6 11//6
f 3//7 2//7 7//7
f 4//8 3//8 8//8
f 5//9 4//9 9//9
f 6//10 5//10 10//10
f 2//11 11//11 7//11
f 3//12 7//12 8//12
f 4//13 8//13 9//13
f 5//14 9//14 10//14
f 6//15 10//15 11//15
f 7//16 11//16 12//16
f 8//17 7//17 12//17
f 9//18 8//18 12//18
f 10//19 9//19 12//19
f 11//20 10//20 12//20
