# Blender 4.1.1
# www.blender.org
mtllib Bush_2.mtl
o Bush_2
v -0.016669 -0.478297 -0.003978
v 0.847903 -0.315039 0.297376
v -0.307219 -0.428782 0.574599
v -0.894425 -0.447215 0.000000
v -0.371602 -0.362253 -0.668597
v 0.658134 -0.259920 -0.384081
v 0.331016 0.382515 0.824952
v -0.965001 0.399689 0.420343
v -1.052039 0.268447 -0.544848
v 0.154627 0.413888 -0.784465
v 1.113236 0.399064 -0.105480
v -0.087999 0.777508 0.018909
vn 0.1326 -0.9797 0.1504
vn 0.2313 -0.9624 -0.1423
vn -0.0350 -0.9971 0.0678
vn -0.0357 -0.9875 -0.1534
vn 0.1650 -0.9529 -0.2545
vn 0.8417 -0.4663 -0.2721
vn 0.2498 -0.4595 0.8523
vn -0.6396 -0.3838 0.6660
vn -0.6179 -0.5579 -0.5541
vn 0.2817 -0.3257 -0.9025
vn 0.7623 0.0791 0.6423
vn -0.2982 -0.0594 0.9527
vn -0.9850 -0.1353 0.1072
vn -0.1929 -0.0157 -0.9811
vn 0.5766 -0.0536 -0.8153
vn 0.3147 0.9067 0.2807
vn -0.1430 0.8573 0.4945
vn -0.4264 0.9006 -0.0840
vn -0.1948 0.8701 -0.4527
vn 0.2514 0.9080 -0.3351
s 0
usemtl Material
f 1//1 2//1 3//1
f 2//2 1//2 6//2
f 1//3 3//3 4//3
f 1//4 4//4 5//4
f 1//5 5//5 6//5
f 2//6 6//6 11//6
f 3//7 2//7 7//7
f 4//8 3//8 8//8
f 5//9 4//9 9//9
f 6//10 5//10 10//10
f 2//11 11//11 7//11
f 3//12 7//12 8//12
f 4//13 8//13 9//13
f 5//14 9//14 10//14
f 6//15 10//15 11//15
f 7//16 11//16 12//16
f 8//17 7//17 12//17
f 9//18 8//18 12//18
f 10//19 9//19 12//19
f 11//20 10//20 12//20
